<svg width="13" height="13" viewBox="0 0 13 13" fill="none" xmlns="http://www.w3.org/2000/svg">
<path d="M6.5 0.203125C3.02148 0.203125 0.203125 3.02148 0.203125 6.5C0.203125 9.97852 3.02148 12.7969 6.5 12.7969C9.97852 12.7969 12.7969 9.97852 12.7969 6.5C12.7969 3.02148 9.97852 0.203125 6.5 0.203125ZM6.5 11.5781C3.69434 11.5781 1.42188 9.30566 1.42188 6.5C1.42188 3.69434 3.69434 1.42188 6.5 1.42188C9.30566 1.42188 11.5781 3.69434 11.5781 6.5C11.5781 9.30566 9.30566 11.5781 6.5 11.5781ZM8.06914 8.92734L5.91348 7.36074C5.83477 7.30234 5.78906 7.21094 5.78906 7.11445V2.94531C5.78906 2.77773 5.92617 2.64062 6.09375 2.64062H6.90625C7.07383 2.64062 7.21094 2.77773 7.21094 2.94531V6.54316L8.90703 7.77715C9.04414 7.87617 9.07207 8.0666 8.97305 8.20371L8.4957 8.86133C8.39668 8.9959 8.20625 9.02637 8.06914 8.92734Z" fill="#8D8D8D"/>
</svg>
