<svg width="18" height="18" viewBox="0 0 18 18" fill="none" xmlns="http://www.w3.org/2000/svg">
<path d="M9 0C4.03754 0 0 4.03719 0 9C0 13.9628 4.03754 18 9 18C13.9625 18 18 13.9628 18 9C18 4.03719 13.9625 0 9 0ZM9 17.3077C4.41935 17.3077 0.692308 13.5807 0.692308 9C0.692308 4.41935 4.41935 0.692308 9 0.692308C13.5807 0.692308 17.3077 4.41935 17.3077 9C17.3077 13.5807 13.5807 17.3077 9 17.3077Z" fill="#23539C"/>
<path d="M13.3271 8.65385H9.34638V4.84615C9.34638 4.65473 9.1913 4.5 9.00023 4.5C8.80915 4.5 8.65407 4.65473 8.65407 4.84615V8.65385H4.6733C4.48223 8.65385 4.32715 8.80858 4.32715 9C4.32715 9.19142 4.48223 9.34615 4.6733 9.34615H8.65407V13.5C8.65407 13.6914 8.80915 13.8462 9.00023 13.8462C9.1913 13.8462 9.34638 13.6914 9.34638 13.5V9.34615H13.3271C13.5182 9.34615 13.6733 9.19142 13.6733 9C13.6733 8.80858 13.5182 8.65385 13.3271 8.65385Z" fill="#23539C"/>
</svg>
