<svg width="10" height="11" viewBox="0 0 10 11" fill="none" xmlns="http://www.w3.org/2000/svg">
<path d="M0 9.96875C0 10.5381 0.479911 11 1.07143 11H8.92857C9.52009 11 10 10.5381 10 9.96875V4.125H0V9.96875ZM7.14286 5.75781C7.14286 5.61602 7.26339 5.5 7.41071 5.5H8.30357C8.45089 5.5 8.57143 5.61602 8.57143 5.75781V6.61719C8.57143 6.75898 8.45089 6.875 8.30357 6.875H7.41071C7.26339 6.875 7.14286 6.75898 7.14286 6.61719V5.75781ZM7.14286 8.50781C7.14286 8.36602 7.26339 8.25 7.41071 8.25H8.30357C8.45089 8.25 8.57143 8.36602 8.57143 8.50781V9.36719C8.57143 9.50898 8.45089 9.625 8.30357 9.625H7.41071C7.26339 9.625 7.14286 9.50898 7.14286 9.36719V8.50781ZM4.28571 5.75781C4.28571 5.61602 4.40625 5.5 4.55357 5.5H5.44643C5.59375 5.5 5.71429 5.61602 5.71429 5.75781V6.61719C5.71429 6.75898 5.59375 6.875 5.44643 6.875H4.55357C4.40625 6.875 4.28571 6.75898 4.28571 6.61719V5.75781ZM4.28571 8.50781C4.28571 8.36602 4.40625 8.25 4.55357 8.25H5.44643C5.59375 8.25 5.71429 8.36602 5.71429 8.50781V9.36719C5.71429 9.50898 5.59375 9.625 5.44643 9.625H4.55357C4.40625 9.625 4.28571 9.50898 4.28571 9.36719V8.50781ZM1.42857 5.75781C1.42857 5.61602 1.54911 5.5 1.69643 5.5H2.58929C2.73661 5.5 2.85714 5.61602 2.85714 5.75781V6.61719C2.85714 6.75898 2.73661 6.875 2.58929 6.875H1.69643C1.54911 6.875 1.42857 6.75898 1.42857 6.61719V5.75781ZM1.42857 8.50781C1.42857 8.36602 1.54911 8.25 1.69643 8.25H2.58929C2.73661 8.25 2.85714 8.36602 2.85714 8.50781V9.36719C2.85714 9.50898 2.73661 9.625 2.58929 9.625H1.69643C1.54911 9.625 1.42857 9.50898 1.42857 9.36719V8.50781ZM8.92857 1.375H7.85714V0.34375C7.85714 0.154687 7.69643 0 7.5 0H6.78571C6.58929 0 6.42857 0.154687 6.42857 0.34375V1.375H3.57143V0.34375C3.57143 0.154687 3.41071 0 3.21429 0H2.5C2.30357 0 2.14286 0.154687 2.14286 0.34375V1.375H1.07143C0.479911 1.375 0 1.83691 0 2.40625V3.4375H10V2.40625C10 1.83691 9.52009 1.375 8.92857 1.375Z" fill="white"/>
</svg>
