<svg width="13" height="13" viewBox="0 0 13 13" fill="none" xmlns="http://www.w3.org/2000/svg">
<path d="M6.5 0.203125C3.02258 0.203125 0.203125 3.02359 0.203125 6.5C0.203125 9.97844 3.02258 12.7969 6.5 12.7969C9.97742 12.7969 12.7969 9.97844 12.7969 6.5C12.7969 3.02359 9.97742 0.203125 6.5 0.203125ZM6.5 11.5781C3.69352 11.5781 1.42188 9.30742 1.42188 6.5C1.42188 3.69446 3.69362 1.42188 6.5 1.42188C9.30544 1.42188 11.5781 3.6936 11.5781 6.5C11.5781 9.30643 9.30742 11.5781 6.5 11.5781ZM9.22299 5.09844C9.22299 6.80093 7.38418 6.82713 7.38418 7.45629V7.61719C7.38418 7.78545 7.24775 7.92188 7.07949 7.92188H5.92048C5.75222 7.92188 5.6158 7.78545 5.6158 7.61719V7.39733C5.6158 6.48974 6.30388 6.12694 6.82386 5.8354C7.26974 5.58543 7.54302 5.41541 7.54302 5.08437C7.54302 4.64648 6.98445 4.35584 6.53288 4.35584C5.9441 4.35584 5.67229 4.63455 5.29021 5.11677C5.1872 5.24677 4.99924 5.27092 4.86705 5.1707L4.16058 4.63501C4.03091 4.5367 4.00187 4.35403 4.09345 4.21954C4.69336 3.33864 5.45746 2.84375 6.64711 2.84375C7.89306 2.84375 9.22299 3.81631 9.22299 5.09844ZM7.56641 9.34375C7.56641 9.93177 7.08802 10.4102 6.5 10.4102C5.91198 10.4102 5.43359 9.93177 5.43359 9.34375C5.43359 8.75573 5.91198 8.27734 6.5 8.27734C7.08802 8.27734 7.56641 8.75573 7.56641 9.34375Z" fill="white"/>
</svg>
