<svg width="10" height="10" viewBox="0 0 10 10" fill="none" xmlns="http://www.w3.org/2000/svg">
<g clip-path="url(#clip0)">
<path d="M0.136719 8.64648L2.08398 6.69922C2.17188 6.61133 2.29102 6.5625 2.41602 6.5625H2.73438C2.19531 5.87305 1.875 5.00586 1.875 4.0625C1.875 1.81836 3.69336 0 5.9375 0C8.18164 0 10 1.81836 10 4.0625C10 6.30664 8.18164 8.125 5.9375 8.125C4.99414 8.125 4.12695 7.80469 3.4375 7.26562V7.58398C3.4375 7.70898 3.38867 7.82812 3.30078 7.91602L1.35352 9.86328C1.16992 10.0469 0.873047 10.0469 0.691406 9.86328L0.138672 9.31055C-0.0449219 9.12695 -0.0449219 8.83008 0.136719 8.64648ZM5.9375 6.5625C7.31836 6.5625 8.4375 5.44531 8.4375 4.0625C8.4375 2.68164 7.32031 1.5625 5.9375 1.5625C4.55664 1.5625 3.4375 2.67969 3.4375 4.0625C3.4375 5.44336 4.55469 6.5625 5.9375 6.5625Z" fill="white"/>
</g>
<defs>
<clipPath id="clip0">
<rect width="10" height="10" fill="white" transform="matrix(-1 0 0 1 10 0)"/>
</clipPath>
</defs>
</svg>
