<svg width="12" height="12" viewBox="0 0 12 12" fill="none" xmlns="http://www.w3.org/2000/svg">
<path d="M7.125 1.125C7.125 1.74633 6.62133 2.25 6 2.25C5.37867 2.25 4.875 1.74633 4.875 1.125C4.875 0.503672 5.37867 0 6 0C6.62133 0 7.125 0.503672 7.125 1.125ZM6 9.75C5.37867 9.75 4.875 10.2537 4.875 10.875C4.875 11.4963 5.37867 12 6 12C6.62133 12 7.125 11.4963 7.125 10.875C7.125 10.2537 6.62133 9.75 6 9.75ZM10.875 4.875C10.2537 4.875 9.75 5.37867 9.75 6C9.75 6.62133 10.2537 7.125 10.875 7.125C11.4963 7.125 12 6.62133 12 6C12 5.37867 11.4963 4.875 10.875 4.875ZM2.25 6C2.25 5.37867 1.74633 4.875 1.125 4.875C0.503672 4.875 0 5.37867 0 6C0 6.62133 0.503672 7.125 1.125 7.125C1.74633 7.125 2.25 6.62133 2.25 6ZM2.55286 8.32214C1.93153 8.32214 1.42786 8.82581 1.42786 9.44714C1.42786 10.0685 1.93153 10.5721 2.55286 10.5721C3.17419 10.5721 3.67786 10.0685 3.67786 9.44714C3.67786 8.82584 3.17416 8.32214 2.55286 8.32214ZM9.44714 8.32214C8.82581 8.32214 8.32214 8.82581 8.32214 9.44714C8.32214 10.0685 8.82581 10.5721 9.44714 10.5721C10.0685 10.5721 10.5721 10.0685 10.5721 9.44714C10.5721 8.82584 10.0685 8.32214 9.44714 8.32214ZM2.55286 1.42786C1.93153 1.42786 1.42786 1.93153 1.42786 2.55286C1.42786 3.17419 1.93153 3.67786 2.55286 3.67786C3.17419 3.67786 3.67786 3.17419 3.67786 2.55286C3.67786 1.93153 3.17416 1.42786 2.55286 1.42786Z" fill="#23539C"/>
</svg>
