<svg width="68" height="43" viewBox="0 0 68 43" fill="none" xmlns="http://www.w3.org/2000/svg">
<path fill-rule="evenodd" clip-rule="evenodd" d="M21.1166 24.6485L66.4518 24.6881V25.5925L20.5873 25.642L21.1166 24.6485ZM19.6032 27.4867L64.6643 27.4885V28.3094L19.1737 28.294L19.603 27.4867H19.6032Z" fill="white"/>
<path fill-rule="evenodd" clip-rule="evenodd" d="M0 28.294L8.41803 21.9144L25.9366 0L16.2895 21.8999L22.5838 21.9144L19.1847 28.294H14.3762L9.35607 40.4252L6.10168 28.2949L0 28.294ZM54.329 11.2511L58.5056 11.2529L56.5165 16.4004L62.6871 11.2502L67.9998 11.2447L60.756 17.5021L63.1237 24.085H57.8217L55.6032 18.8132L53.4958 24.0662L49.1635 24.0626L54.329 11.2508V11.2511ZM38.757 11.2438L51.2555 11.2465L46.2164 24.0662L41.9134 24.078L45.6216 14.7033H41.676L38.053 24.0671L33.7072 24.0644L38.757 11.2438Z" fill="white"/>
<path fill-rule="evenodd" clip-rule="evenodd" d="M35.7952 11.567L33.9707 16.0911C32.6636 14.5899 30.2341 14.8499 28.4169 16.2429C27.1826 17.1898 27.047 18.7016 27.7701 19.4666C28.2168 19.9382 29.1599 20.1704 30.6517 19.8536C31.2919 19.7178 31.9213 19.4109 32.8891 19.023L31.1527 23.3481C30.3978 23.8618 26.0847 24.9131 23.9944 23.4766C23.0639 22.8378 22.6064 21.5715 22.6019 20.6735C22.5936 18.8691 23.5578 16.5455 24.7403 15.0102C27.7909 11.0503 31.7876 10.2333 35.7952 11.567Z" fill="white"/>
</svg>
